<?xml version="1.0" encoding="utf-8"?>
<!-- Generator: Adobe Illustrator 21.0.2, SVG Export Plug-In . SVG Version: 6.00 Build 0)  -->
<svg version="1.1" id="Camada_1" xmlns="http://www.w3.org/2000/svg" xmlns:xlink="http://www.w3.org/1999/xlink" x="0px" y="0px"
	 viewBox="0 0 260 204" style="enable-background:new 0 0 260 204;" xml:space="preserve">
<style type="text/css">
	.st0{opacity:0.7;fill:#FFFFFF;}
	.st1{opacity:0.6;fill:#FFFFFF;}
	.st2{opacity:0.49;fill:#EFEFEF;}
	.st3{opacity:0.9;fill:#FFFFFF;}
</style>
<g>
	<path class="st0" d="M240.1,103.4c-5.5,0-10.2-1.2-13.9-3.9c-3.8-2.7-6.9-7.5-6.9-13.7c0-6.3,3.1-10.9,6.8-13.7
		c5.4-4,11.8-4,16.3-4h9.4c0-3.7,0-8.4-2.8-11.7c-2-2.3-4.9-3.5-9.3-3.5c-5.1,0-10.1,1.2-14.9,3.1l-2.5-7.5c5.4-2,11.3-3.4,17.5-3.4
		c6.9,0,12.1,2.3,15.5,6.3c0.8,1,1.5,2,2.1,3.1c-0.4-3.1-0.8-6.2-1.4-9.3c-0.7-3.9-1.7-7.7-2.7-11.4c-9-6.9-94.3-68.6-143.5,19.7
		C97.8,74.8,86.1,89.4,75.1,99.2c9,4.2,18.8,9.3,29.1,15.4c107.1,63.9,140.8,9.5,147.9-6.2c1.1-3.4,2-6.8,2.8-10.2
		C251.5,101.7,246.5,103.4,240.1,103.4z M154.7,99.6c-3.6,2.6-7.9,3.8-13.2,3.8c-6.2,0-12.6-1.3-18.5-4.2l3.2-7.1
		c4.7,2.3,10,3.4,15.3,3.4c3.3,0,6.2-0.6,8.4-2.3c2.2-1.7,3-4,3-6.1c0-2.7-1.4-5-3.2-6.4c-2.5-1.9-5.4-2.6-9.1-3.5
		s-7.8-1.9-11.3-4.6c-3.4-2.7-6.1-7-6.1-12.1c0-5.5,2.9-9.6,6.2-12c3.3-2.4,7.3-3.4,12.1-3.4c5.9,0,11.6,1.4,16.8,3.9l-3,7.3
		c-4.4-2.1-9.2-3.3-13.8-3.3c-2.9,0-4.9,0.5-6.9,1.7c-2,1.2-3.3,3.3-3.3,5.9c0,2.5,1.3,4.5,2.9,5.8c2.3,1.9,4.7,2.5,8.8,3.5
		c4.1,1,7.9,2,11.1,4.4c3.6,2.6,6.8,7,6.8,13C160.9,92.6,158.2,97,154.7,99.6z M180.3,90.6c2.3,3.2,6,5,11.5,5c4.9,0,9.9-1.2,14-3.4
		l3.3,7.1c-5.4,2.9-11.4,4.2-17.3,4.2c-7.9,0-14.2-3-17.9-8.1c-4.4-6.2-4.4-13.3-4.4-21.1c0-9.3,0-14.8,4.1-20.7
		c3.7-5.4,10.6-8.4,18.7-8.4c5.7,0,10.3,1.5,13.8,4.4c3.4,3,5.6,7.4,5.7,12c0,5.2-2.5,9.3-5.7,11.7c-4.8,3.6-9.8,3.6-17.9,3.6h-10.6
		C177.6,79.9,177.6,86.9,180.3,90.6z"/>
	<path class="st0" d="M231.1,77.9c-2.1,1.5-3.8,4.3-3.8,8c0,3.3,1.6,5.9,3.7,7.5c2.2,1.5,5.4,2.3,9.1,2.3c4.2,0,7.6-1,9.5-3.3
		c2.2-2.6,2.2-6.3,2.2-13.3v-3.4h-9.4C238.5,75.5,234.4,75.5,231.1,77.9z"/>
	<path class="st0" d="M201.1,67.5c1.5-1.2,2.8-3.2,2.8-5.9c-0.1-2.3-1.3-4.6-3-6.1c-2-1.7-4.9-2.5-8.5-2.5c-5.2,0-9.3,1.5-11.8,4.6
		c-2.9,3.5-2.9,9.4-2.9,11.8h10.6C195.4,69.4,198.6,69.4,201.1,67.5z"/>
	<path class="st1" d="M75.1,99.2C31.6,79,4.4,79.8,2.7,79.9C2.7,81,2.8,82.1,3,83.3c0.6,4.3,1.2,8.6,2,12.6c1.1,5.1,2.5,10.2,4.1,15
		c0-0.2-0.1-0.3-0.1-0.3S38,132.2,75.1,99.2z"/>
	<path class="st2" d="M104.3,114.6c-10.4-6.2-20.1-11.3-29.1-15.4C38,132.2,9,110.6,9,110.6s0,0.1,0.1,0.3
		c17.2,50.4,64.9,86.6,121.1,86.6c57.1,0,105.5-37.4,122-89.1C245.1,124.1,211.4,178.5,104.3,114.6z"/>
	<path class="st3" d="M104.3,114.6c-10.4-6.2-20.1-11.3-29.1-15.4C38,132.2,9,110.6,9,110.6s0,0.1,0.1,0.3
		c17.2,50.4,64.9,86.6,121.1,86.6c57.1,0,105.5-37.4,122-89.1C245.1,124.1,211.4,178.5,104.3,114.6z"/>
</g>
</svg>
