<svg width="252" height="249" viewBox="0 0 252 249" fill="none" xmlns="http://www.w3.org/2000/svg">
<path d="M26 241.5L21 240L15.5 237.5L10 234.5L6.73255 232.633C6.57821 232.545 6.43631 232.436 6.31062 232.311L4.64004 230.64C4.54691 230.547 4.46321 230.445 4.39015 230.335L3.60985 229.165C3.5368 229.055 3.4531 228.953 3.35997 228.86L2.14004 227.64C2.04691 227.547 1.9632 227.445 1.89015 227.335L1.32358 226.485C1.11226 226.168 0.99587 225.798 0.988097 225.417L0.5 201.5L0 139.727V2C0 0.895431 0.895431 0 2 0H126H250C251.105 0 252 0.895425 252 1.99999V117.425V154.637V191.849L228.685 176.621C228.562 176.54 228.431 176.474 228.293 176.423L200.66 166.06C200.554 166.02 200.444 165.989 200.332 165.968L190 164L180.5 163.282L173 162.625L170.5 162.5H168.166C168.055 162.5 167.945 162.509 167.837 162.527L165 163L163.324 163.282L159 164L154.15 165.455C154.05 165.485 153.953 165.523 153.859 165.568L141.661 171.423C141.554 171.474 141.452 171.535 141.355 171.604L132.5 178L124.831 185.19C124.611 185.396 124.41 185.622 124.23 185.864L89.0885 233.38C89.0296 233.46 88.9648 233.535 88.8947 233.605L86 236.5L81.5 240L76 243.5L71 246L67 247.5L62.7143 248.452C62.5719 248.484 62.4264 248.5 62.2805 248.5H58.1803C58.0604 248.5 57.9406 248.489 57.8226 248.468L52.5 247.5L33.5 243.5L26 241.5Z" fill="#00454B"/>
</svg>
